<svg width="19" height="25" viewBox="0 0 19 25" fill="none" xmlns="http://www.w3.org/2000/svg">
<path d="M9.6612 23.7741C10.945 22.9582 12.0986 21.9694 13.1037 20.8667C15.2868 18.4761 16.7598 15.5544 17.3498 12.6877C17.9358 9.85766 17.6591 7.08455 16.3631 4.94418C15.9948 4.32974 15.533 3.7682 14.9836 3.26363C13.4089 1.82926 11.6062 1.14565 9.79141 1.12734C7.88502 1.11309 5.95218 1.82926 4.24315 3.19039C3.51477 3.77227 2.91457 4.44164 2.44866 5.18019C1.24826 7.06827 0.884076 9.41209 1.28082 11.8637C1.68163 14.352 2.86371 16.9542 4.74772 19.3123C6.05798 20.9562 7.70598 22.4821 9.6673 23.77L9.6612 23.7741ZM9.3845 4.30533C10.8189 4.30533 12.121 4.88721 13.0589 5.82922C14.0009 6.77122 14.5828 8.06724 14.5828 9.50365C14.5828 10.938 14.0009 12.2401 13.0589 13.1781C12.1169 14.1201 10.8209 14.702 9.3845 14.702C7.95013 14.702 6.648 14.1201 5.71007 13.1781C4.76806 12.2361 4.18618 10.9401 4.18618 9.50365C4.18618 8.06928 4.76806 6.76715 5.71007 5.82922C6.65207 4.88721 7.94809 4.30533 9.3845 4.30533ZM12.3102 6.57794C11.5635 5.83125 10.5239 5.3633 9.3845 5.3633C8.23904 5.3633 7.20548 5.82515 6.45879 6.57794C5.7121 7.32463 5.24415 8.36429 5.24415 9.50365C5.24415 10.6491 5.706 11.6827 6.45879 12.4294C7.20548 13.176 8.24514 13.644 9.3845 13.644C10.53 13.644 11.5635 13.1821 12.3102 12.4294C13.0569 11.6827 13.5248 10.643 13.5248 9.50365C13.5228 8.35819 13.063 7.32463 12.3102 6.57794ZM13.9399 21.6215C12.8005 22.8667 11.4801 23.9837 9.98876 24.889C9.80972 25.0233 9.5554 25.0416 9.35194 24.9114C7.15461 23.5137 5.31333 21.8331 3.86065 20.0101C1.86067 17.5015 0.597202 14.7182 0.167909 12.0367C-0.269523 9.3185 0.139425 6.70612 1.49241 4.57389C2.0275 3.73362 2.70705 2.96862 3.54122 2.30738C5.44761 0.789598 7.6307 -0.0140559 9.79955 0.000186064C11.8911 0.0184972 13.9541 0.793667 15.7446 2.42742C16.3732 2.99914 16.8981 3.64613 17.3274 4.35619C18.7822 6.75088 19.0955 9.81087 18.4587 12.9034C17.8259 15.9634 16.2613 19.0742 13.946 21.6114L13.9399 21.6215Z" fill="#F5F5F5"/>
</svg>
