<svg width="25" height="25" viewBox="0 0 25 25" fill="none" xmlns="http://www.w3.org/2000/svg">
<path d="M12.5 0C15.9493 0 19.0762 1.40222 21.3407 3.65927C23.6053 5.92382 25 9.04319 25 12.5C25 15.9493 23.5978 19.0762 21.3407 21.3407C19.0762 23.6053 15.9568 25 12.5 25C9.05069 25 5.92382 23.5978 3.65927 21.3407C1.39472 19.0762 0 15.9568 0 12.5C0 9.05069 1.40222 5.92382 3.65927 3.65927C5.92382 1.39472 9.04319 0 12.5 0ZM13.8572 8.52579H16.1143V5.81884H13.8572C12.1176 5.81884 10.7004 7.23605 10.7004 8.97571V10.3329H8.89322V13.0399H10.7004V20.2609H13.4073V13.0399H15.6644L16.1143 10.3329H13.4073V8.97571C13.4073 8.72825 13.6173 8.52579 13.8572 8.52579ZM20.7034 4.30414C18.6038 2.20456 15.7094 0.907319 12.5075 0.907319C9.30564 0.907319 6.40372 2.20456 4.31164 4.30414C2.21206 6.40372 0.914817 9.29814 0.914817 12.5C0.914817 15.7019 2.21206 18.6038 4.31164 20.6959C6.41122 22.7954 9.30564 24.0927 12.5075 24.0927C15.7094 24.0927 18.6113 22.7954 20.7034 20.6959C22.8029 18.5963 24.1002 15.7019 24.1002 12.5C24.1002 9.29814 22.8029 6.39622 20.7034 4.30414Z" fill="white"/>
</svg>
