<svg width="25" height="25" viewBox="0 0 25 25" fill="none" xmlns="http://www.w3.org/2000/svg">
<path fill-rule="evenodd" clip-rule="evenodd" d="M12.4625 8.80324C14.5996 8.80324 16.3317 10.5354 16.3317 12.6725C16.3317 14.8095 14.5996 16.5417 12.4625 16.5417C10.3254 16.5417 8.59328 14.8095 8.59328 12.6725C8.59328 10.5354 10.3254 8.80324 12.4625 8.80324ZM9.57559 5.64637H15.4244C17.6215 5.64637 19.4136 7.42352 19.4136 9.58308V15.4169C19.4136 17.584 17.6215 19.3536 15.4244 19.3536H9.57559C7.37852 19.3536 5.58638 17.584 5.58638 15.4169V9.58308C5.58638 7.41602 7.38602 5.64637 9.57559 5.64637ZM16.2043 8.26335C16.5492 8.26335 16.8341 8.54079 16.8341 8.89322C16.8341 9.23815 16.5567 9.5231 16.2043 9.5231C15.8593 9.5231 15.5744 9.24565 15.5744 8.89322C15.5744 8.54829 15.8518 8.26335 16.2043 8.26335ZM10.0555 6.76365H14.9445C16.7816 6.76365 18.2813 8.25585 18.2813 10.0855V15.0045C18.2813 16.8341 16.7816 18.3263 14.9445 18.3263H10.0555C8.21836 18.3263 6.71866 16.8341 6.71866 15.0045V10.0855C6.71866 8.25585 8.21836 6.76365 10.0555 6.76365ZM12.5 0C15.9493 0 19.0762 1.40222 21.3407 3.65927C23.6053 5.92382 25 9.04319 25 12.5C25 15.9493 23.5978 19.0762 21.3407 21.3407C19.0762 23.6053 15.9568 25 12.5 25C9.05069 25 5.92382 23.5978 3.65927 21.3407C1.39472 19.0762 0 15.9568 0 12.5C0 9.05069 1.40222 5.92382 3.65927 3.65927C5.92382 1.39472 9.04319 0 12.5 0ZM20.6959 4.29664C18.5963 2.19706 15.7019 0.89982 12.5 0.89982C9.29814 0.89982 6.39622 2.19706 4.30414 4.29664C2.20456 6.39622 0.907319 9.29064 0.907319 12.4925C0.907319 15.6944 2.20456 18.5963 4.30414 20.6884C6.40372 22.7879 9.29814 24.0852 12.5 24.0852C15.7019 24.0852 18.6038 22.7879 20.6959 20.6884C22.7954 18.5888 24.0927 15.6944 24.0927 12.4925C24.0927 9.29064 22.7954 6.38872 20.6959 4.29664ZM12.4625 10.1005C13.8722 10.1005 15.0195 11.2478 15.0195 12.6575C15.0195 14.0672 13.8722 15.2145 12.4625 15.2145C11.0453 15.2145 9.90552 14.0672 9.90552 12.6575C9.90552 11.2478 11.0528 10.1005 12.4625 10.1005Z" fill="white"/>
</svg>
