<svg width="92" height="21" viewBox="0 0 92 21" fill="none" xmlns="http://www.w3.org/2000/svg">
<path d="M0.35 21C0.25 21 0.2 20.95 0.2 20.85L0.26 0.239999C0.26 0.159999 0.3 0.119999 0.38 0.119999H9.98C10.08 0.119999 10.13 0.159999 10.13 0.239999V3.63C10.13 3.71 10.09 3.75 10.01 3.75H3.86V8.4H10.01C10.09 8.4 10.13 8.45 10.13 8.55L10.16 11.94C10.16 12.02 10.11 12.06 10.01 12.06H3.86V20.85C3.86 20.95 3.81 21 3.71 21H0.35ZM13.2399 21C13.1599 21 13.1199 20.95 13.1199 20.85L13.1799 0.239999C13.1799 0.159999 13.2199 0.119999 13.2999 0.119999H19.3599C20.4399 0.119999 21.4299 0.389999 22.3299 0.929999C23.2499 1.45 23.9799 2.16 24.5199 3.06C25.0599 3.94 25.3299 4.94 25.3299 6.06C25.3299 6.8 25.2199 7.47 24.9999 8.07C24.7799 8.65 24.5199 9.15 24.2199 9.57C23.9199 9.97 23.6499 10.27 23.4099 10.47C24.4899 11.67 25.0299 13.08 25.0299 14.7L25.0599 20.85C25.0599 20.95 25.0099 21 24.9099 21H21.5199C21.4399 21 21.3999 20.97 21.3999 20.91V14.7C21.3999 13.98 21.1399 13.36 20.6199 12.84C20.1199 12.3 19.4999 12.03 18.7599 12.03H16.7799L16.7499 20.85C16.7499 20.95 16.7099 21 16.6299 21H13.2399ZM16.7799 8.43H19.3599C19.9799 8.43 20.5299 8.2 21.0099 7.74C21.4899 7.28 21.7299 6.72 21.7299 6.06C21.7299 5.42 21.4899 4.87 21.0099 4.41C20.5499 3.95 19.9999 3.72 19.3599 3.72H16.7799V8.43ZM29.4744 21C29.4144 21 29.3844 20.96 29.3844 20.88L29.4144 12.36L25.3944 0.239999C25.3744 0.159999 25.4044 0.119999 25.4844 0.119999H28.8144C28.9144 0.119999 28.9744 0.159999 28.9944 0.239999L31.2144 8.31L33.4644 0.239999C33.4844 0.159999 33.5344 0.119999 33.6144 0.119999H36.9744C37.0544 0.119999 37.0844 0.159999 37.0644 0.239999L33.0144 12.24L33.0444 20.88C33.0444 20.96 33.0044 21 32.9244 21H29.4744ZM38.0033 21C37.9033 21 37.8533 20.95 37.8533 20.85L37.8833 17.58L45.2333 3.54H38.2733C38.1933 3.54 38.1533 3.5 38.1533 3.42V0.269999C38.1533 0.169999 38.1933 0.119999 38.2733 0.119999H49.1333C49.2333 0.119999 49.2833 0.169999 49.2833 0.269999V3.51L41.9633 17.49H49.1933C49.2733 17.49 49.3133 17.54 49.3133 17.64L49.3433 20.85C49.3433 20.95 49.2933 21 49.1933 21H38.0033ZM51.3552 21C51.2752 21 51.2352 20.95 51.2352 20.85L51.2952 0.239999C51.2952 0.159999 51.3352 0.119999 51.4152 0.119999H55.0752C55.1552 0.119999 55.2252 0.159999 55.2852 0.239999L58.0152 4.2L60.7452 0.239999C60.8052 0.159999 60.8752 0.119999 60.9552 0.119999H64.6452C64.7252 0.119999 64.7652 0.159999 64.7652 0.239999L64.8252 20.85C64.8252 20.95 64.7852 21 64.7052 21H61.3152C61.2352 21 61.1952 20.95 61.1952 20.85L61.1652 5.55L58.0152 10.11L54.8952 5.55L54.8652 20.85C54.8652 20.95 54.8252 21 54.7452 21H51.3552ZM66.3284 20.85L70.0484 0.239999C70.0684 0.159999 70.1184 0.119999 70.1984 0.119999H74.5484C74.6284 0.119999 74.6784 0.159999 74.6984 0.239999L78.2684 20.85C78.2884 20.95 78.2484 21 78.1484 21H74.8184C74.7384 21 74.6884 20.95 74.6684 20.85L74.3384 18.66H70.2584L69.9284 20.85C69.9084 20.95 69.8584 21 69.7784 21H66.4484C66.3684 21 66.3284 20.95 66.3284 20.85ZM70.8584 15.45H73.7384L72.5084 7.02L72.3284 5.91L72.2084 7.02L70.8584 15.45ZM80.4212 21C80.2612 21 80.1812 20.93 80.1812 20.79L80.1512 0.359999C80.1512 0.199999 80.2312 0.119999 80.3912 0.119999H83.0912L88.1612 11.94L88.0112 0.359999C88.0112 0.199999 88.1012 0.119999 88.2812 0.119999H91.2512C91.3712 0.119999 91.4312 0.199999 91.4312 0.359999L91.4612 20.82C91.4612 20.94 91.4112 21 91.3112 21H88.6712L83.4812 9.96L83.6912 20.76C83.6912 20.92 83.6012 21 83.4212 21H80.4212Z" fill="#007BBB"/>
</svg>
