<svg width="25" height="25" viewBox="0 0 25 25" fill="none" xmlns="http://www.w3.org/2000/svg">
<path d="M6.88118 10.2831C7.72287 11.8048 8.69152 13.2692 9.94805 14.6042C11.2103 15.9456 12.7732 17.1679 14.8055 18.2042L14.8075 18.2052L14.808 18.2042C14.9561 18.28 15.0971 18.2782 15.2295 18.2283C15.4216 18.1561 15.6216 17.9958 15.8161 17.8018C15.9644 17.6533 16.1503 17.4084 16.3514 17.1427C17.1338 16.1093 18.1013 14.832 19.467 15.4675C19.4959 15.4808 19.5232 15.4963 19.5488 15.5137L24.1007 18.1416C24.117 18.151 24.1327 18.161 24.1475 18.1717C24.751 18.588 24.9973 19.2292 25 19.9471C25.0028 20.6875 24.7296 21.5162 24.3339 22.2169C23.812 23.1405 23.0344 23.7509 22.1445 24.1645C21.2961 24.5588 20.3545 24.7686 19.4453 24.9023C18.0233 25.1119 16.6828 24.9788 15.3176 24.5563C13.985 24.1439 12.6369 23.4552 11.1671 22.5402L11.0601 22.4736C10.3834 22.0523 9.65508 21.5992 8.94645 21.0619C6.32901 19.0764 3.66356 16.2112 1.93522 13.0666C0.48032 10.4195 -0.315795 7.56441 0.118172 4.84206C0.35601 3.34818 0.997093 1.99212 2.10225 1.09387C3.0711 0.306034 4.3785 -0.120701 6.05903 0.0299955C6.25699 0.0471712 6.42382 0.160654 6.51782 0.320143L6.51904 0.319529L9.43331 5.28209C9.8626 5.83784 9.91021 6.38931 9.67807 6.9375C9.48621 7.39102 9.08968 7.80671 8.56395 8.19869C8.40404 8.3316 8.21645 8.46961 8.02297 8.61193C7.37232 9.0906 6.62809 9.63797 6.88118 10.2831ZM9.08825 15.4217C7.74464 13.9941 6.72107 12.4482 5.83808 10.8503C5.82261 10.8251 5.80878 10.7986 5.79698 10.7705C5.15122 9.24538 6.30968 8.39355 7.32146 7.64988C7.49338 7.52352 7.6598 7.40104 7.80995 7.2759L7.81036 7.27652C7.81911 7.26915 7.82826 7.262 7.83782 7.25505C8.21279 6.97819 8.48298 6.71381 8.58613 6.47048C8.64493 6.33165 8.62316 6.1789 8.49132 6.00735C8.46874 5.98098 8.44798 5.95194 8.42967 5.92086L5.65497 1.19651C4.4609 1.14724 3.53518 1.46662 2.85056 2.0234C1.98812 2.72454 1.48274 3.81438 1.28925 5.02895C0.901673 7.46095 1.63838 10.0578 2.97629 12.4922C4.61979 15.4822 7.16236 18.2127 9.6626 20.1088C10.3501 20.6302 11.0412 21.0602 11.6833 21.4598L11.7903 21.5264C13.1775 22.3899 14.4387 23.0367 15.6665 23.4166C16.862 23.7865 18.0335 23.9032 19.2736 23.7204C20.0892 23.6004 20.9242 23.4168 21.6475 23.0806C22.3292 22.7637 22.9186 22.3067 23.3024 21.6281C23.6067 21.0889 23.8171 20.4722 23.8153 19.9469C23.814 19.6136 23.7192 19.3275 23.4887 19.1609L18.9619 16.5479C18.4612 16.3269 17.8166 17.1779 17.295 17.8668C17.0704 18.1637 16.8626 18.4377 16.6529 18.6473C16.3524 18.947 16.0185 19.204 15.6433 19.3447C15.2088 19.5081 14.7492 19.5152 14.269 19.2691L14.2694 19.2682C12.11 18.1672 10.4418 16.8602 9.08825 15.4217Z" fill="#F5F5F5"/>
</svg>
